<svg width="25" height="24" viewBox="0 0 25 24" fill="none" xmlns="http://www.w3.org/2000/svg">
<path fill-rule="evenodd" clip-rule="evenodd" d="M12.5 21C17.4706 21 21.5 16.9706 21.5 12C21.5 7.02944 17.4706 3 12.5 3C7.52944 3 3.5 7.02944 3.5 12C3.5 16.9706 7.52944 21 12.5 21ZM13.5078 8.87818C13.5078 9.15432 13.284 9.37818 13.0078 9.37818H11.9924C11.7163 9.37818 11.4924 9.15432 11.4924 8.87818V8.18726C11.4924 7.91111 11.7163 7.68726 11.9924 7.68726L13.0078 7.68725C13.284 7.68725 13.5078 7.91111 13.5078 8.18725V8.87818ZM13.4598 15.8128C13.4598 16.089 13.2359 16.3128 12.9598 16.3128H12.0288C11.7527 16.3128 11.5288 16.089 11.5288 15.8128L11.5288 11.4367C11.5288 11.1606 11.7527 10.9367 12.0288 10.9367H12.9598C13.2359 10.9367 13.4598 11.1606 13.4598 11.4367L13.4598 15.8128Z" fill="#0D0C0C"/>
</svg>
